name C:/MyDriveSym/Projects/mobilecap/Data\Session20210827_0002\mocap\ForceDataProcessed\walkingTS1_forces.mot
datacolumns 19
datarows 24
range 0.98450000 0.99600000
endheader 
time	R_ground_force_vx	R_ground_force_vy	R_ground_force_vz	R_ground_force_px	R_ground_force_py	R_ground_force_pz	R_ground_torque_x	R_ground_torque_y	R_ground_torque_z	L_ground_force_vx	L_ground_force_vy	L_ground_force_vz	L_ground_force_px	L_ground_force_py	L_ground_force_pz	L_ground_torque_x	L_ground_torque_y	L_ground_torque_z	
          0.98450000	         84.61932200	        607.92450800	        -15.94849700	          0.29371100	          0.00600000	         -0.19921300	          0.00000000	         -3.42604900	          0.00000000	         -1.21382500	         49.72249500	         -5.19705300	          0.76940300	          0.00600000	         -0.29717400	          0.00000000	          0.39363500	          0.00000000	
          0.98500000	         84.83196200	        607.45005300	        -15.90025500	          0.29377700	          0.00600000	         -0.19921200	          0.00000000	         -3.42109100	          0.00000000	         -1.33923000	         50.73027000	         -5.22186300	          0.77014200	          0.00600000	         -0.29742800	          0.00000000	          0.39223600	          0.00000000	
          0.98550000	         85.04306400	        606.96813400	        -15.85131800	          0.29384300	          0.00600000	         -0.19921200	          0.00000000	         -3.41611100	          0.00000000	         -1.46692100	         51.74754600	         -5.24655300	          0.77086200	          0.00600000	         -0.29767500	          0.00000000	          0.39077500	          0.00000000	
          0.98600000	         85.25260900	        606.47871500	        -15.80168600	          0.29390900	          0.00600000	         -0.19921100	          0.00000000	         -3.41110800	          0.00000000	         -1.59691900	         52.77433300	         -5.27111500	          0.77156400	          0.00600000	         -0.29791500	          0.00000000	          0.38925300	          0.00000000	
          0.98650000	         85.46058100	        605.98175700	        -15.75136000	          0.29397500	          0.00600000	         -0.19921000	          0.00000000	         -3.40608300	          0.00000000	         -1.72924600	         53.81063600	         -5.29554400	          0.77225000	          0.00600000	         -0.29814800	          0.00000000	          0.38767200	          0.00000000	
          0.98700000	         85.66696100	        605.47722300	        -15.70033800	          0.29404100	          0.00600000	         -0.19921000	          0.00000000	         -3.40103600	          0.00000000	         -1.86392200	         54.85646200	         -5.31983400	          0.77291900	          0.00600000	         -0.29837400	          0.00000000	          0.38603300	          0.00000000	
          0.98750000	         85.87173300	        604.96507400	        -15.64862100	          0.29410700	          0.00600000	         -0.19920900	          0.00000000	         -3.39596600	          0.00000000	         -2.00096700	         55.91181400	         -5.34397700	          0.77357200	          0.00600000	         -0.29859300	          0.00000000	          0.38433800	          0.00000000	
          0.98800000	         86.07487700	        604.44527500	        -15.59621000	          0.29417300	          0.00600000	         -0.19920800	          0.00000000	         -3.39087500	          0.00000000	         -2.14040200	         56.97669400	         -5.36796800	          0.77421100	          0.00600000	         -0.29880700	          0.00000000	          0.38258700	          0.00000000	
          0.98850000	         86.27637600	        603.91778900	        -15.54310600	          0.29423800	          0.00600000	         -0.19920800	          0.00000000	         -3.38576100	          0.00000000	         -2.28224900	         58.05110400	         -5.39180000	          0.77483500	          0.00600000	         -0.29901500	          0.00000000	          0.38078200	          0.00000000	
          0.98900000	         86.47621400	        603.38257800	        -15.48930800	          0.29430400	          0.00600000	         -0.19920700	          0.00000000	         -3.38062500	          0.00000000	         -2.42652700	         59.13504300	         -5.41546600	          0.77544500	          0.00600000	         -0.29921700	          0.00000000	          0.37892300	          0.00000000	
          0.98950000	         86.67437100	        602.83960700	        -15.43481700	          0.29437000	          0.00600000	         -0.19920700	          0.00000000	         -3.37546800	          0.00000000	         -2.57325700	         60.22851000	         -5.43895900	          0.77604200	          0.00600000	         -0.29941300	          0.00000000	          0.37701300	          0.00000000	
          0.99000000	         86.87083000	        602.28883900	        -15.37963500	          0.29443500	          0.00600000	         -0.19920600	          0.00000000	         -3.37028800	          0.00000000	         -2.72246000	         61.33150100	         -5.46227200	          0.77662500	          0.00600000	         -0.29960400	          0.00000000	          0.37505200	          0.00000000	
          0.99050000	         87.06557300	        601.73023900	        -15.32376200	          0.29450000	          0.00600000	         -0.19920500	          0.00000000	         -3.36508600	          0.00000000	         -2.87415600	         62.44401000	         -5.48540000	          0.77719700	          0.00600000	         -0.29979000	          0.00000000	          0.37304000	          0.00000000	
          0.99100000	         87.25858200	        601.16377100	        -15.26719900	          0.29456600	          0.00600000	         -0.19920500	          0.00000000	         -3.35986200	          0.00000000	         -3.02836700	         63.56603100	         -5.50833300	          0.77775600	          0.00600000	         -0.29997200	          0.00000000	          0.37098000	          0.00000000	
          0.99150000	         87.44984000	        600.58940000	        -15.20994700	          0.29463100	          0.00600000	         -0.19920400	          0.00000000	         -3.35461600	          0.00000000	         -3.18511200	         64.69755600	         -5.53106600	          0.77830400	          0.00600000	         -0.30014800	          0.00000000	          0.36887100	          0.00000000	
          0.99200000	         87.63932800	        600.00709100	        -15.15200700	          0.29469600	          0.00600000	         -0.19920300	          0.00000000	         -3.34934700	          0.00000000	         -3.34441200	         65.83857500	         -5.55359100	          0.77884000	          0.00600000	         -0.30032000	          0.00000000	          0.36671500	          0.00000000	
          0.99250000	         87.82702800	        599.41681000	        -15.09338200	          0.29476200	          0.00600000	         -0.19920300	          0.00000000	         -3.34405700	          0.00000000	         -3.50628800	         66.98907600	         -5.57590100	          0.77936600	          0.00600000	         -0.30048800	          0.00000000	          0.36451300	          0.00000000	
          0.99300000	         88.01292300	        598.81852200	        -15.03407100	          0.29482700	          0.00600000	         -0.19920200	          0.00000000	         -3.33874500	          0.00000000	         -3.67076100	         68.14904500	         -5.59798800	          0.77988200	          0.00600000	         -0.30065100	          0.00000000	          0.36226500	          0.00000000	
          0.99350000	         88.19699500	        598.21219400	        -14.97407800	          0.29489200	          0.00600000	         -0.19920100	          0.00000000	         -3.33341000	          0.00000000	         -3.83784900	         69.31846700	         -5.61984400	          0.78038700	          0.00600000	         -0.30081000	          0.00000000	          0.35997100	          0.00000000	
          0.99400000	         88.37922600	        597.59779100	        -14.91340200	          0.29495700	          0.00600000	         -0.19920100	          0.00000000	         -3.32805400	          0.00000000	         -4.00757400	         70.49732600	         -5.64146300	          0.78088300	          0.00600000	         -0.30096600	          0.00000000	          0.35763400	          0.00000000	
          0.99450000	         88.55959700	        596.97528100	        -14.85204700	          0.29502200	          0.00600000	         -0.19920000	          0.00000000	         -3.32267500	          0.00000000	         -4.17995700	         71.68560300	         -5.66283600	          0.78136900	          0.00600000	         -0.30111700	          0.00000000	          0.35525200	          0.00000000	
          0.99500000	         88.73809200	        596.34463100	        -14.79001400	          0.29508700	          0.00600000	         -0.19919900	          0.00000000	         -3.31727400	          0.00000000	         -4.35501600	         72.88327600	         -5.68395600	          0.78184700	          0.00600000	         -0.30126500	          0.00000000	          0.35282800	          0.00000000	
          0.99550000	         88.91469100	        595.70580800	        -14.72730500	          0.29515200	          0.00600000	         -0.19919900	          0.00000000	         -3.31185000	          0.00000000	         -4.53277300	         74.09032400	         -5.70481400	          0.78231500	          0.00600000	         -0.30140900	          0.00000000	          0.35036200	          0.00000000	
          0.99600000	         89.08937800	        595.05878000	        -14.66392200	          0.29521700	          0.00600000	         -0.19919800	          0.00000000	         -3.30640500	          0.00000000	         -4.71324800	         75.30672300	         -5.72540300	          0.78277600	          0.00600000	         -0.30155000	          0.00000000	          0.34785400	          0.00000000	
